<?xml version="1.0" standalone="no"?>
<!DOCTYPE svg PUBLIC "-//W3C//DTD SVG 20010904//EN"
 "http://www.w3.org/TR/2001/REC-SVG-20010904/DTD/svg10.dtd">
<svg version="1.0" xmlns="http://www.w3.org/2000/svg"
 width="1200.000000pt" height="1200.000000pt" viewBox="0 0 1200.000000 1200.000000"
 preserveAspectRatio="xMidYMid meet">

<g transform="translate(0.000000,1200.000000) scale(0.100000,-0.100000)"
fill="#000000" stroke="none">
<path d="M6532 6683 l3 -28 98 -3 97 -3 0 -473 0 -473 -44 43 c-78 74 -226
112 -390 99 -325 -25 -513 -214 -572 -572 -19 -117 -18 -376 1 -489 61 -352
238 -541 529 -561 215 -15 385 58 466 200 32 56 32 56 50 -63 6 -41 14 -83 16
-92 5 -17 31 -18 370 -18 l364 0 0 30 0 30 -80 0 -80 0 0 1200 0 1200 -416 0
-415 0 3 -27z m71 -948 c51 -21 94 -79 120 -160 21 -68 22 -83 22 -515 0 -492
-1 -506 -65 -602 -41 -61 -121 -103 -181 -95 -81 11 -116 58 -141 192 -21 112
-17 884 5 988 19 91 57 166 95 190 34 21 98 22 145 2z"/>
<path d="M1820 6515 l0 -35 95 0 95 0 0 -1075 0 -1075 -95 0 -95 0 0 -40 0
-40 870 0 c822 0 870 1 870 18 0 9 14 181 30 382 17 200 30 366 30 367 0 2
-16 3 -35 3 -34 0 -35 -2 -96 -121 -138 -270 -276 -433 -430 -507 -100 -48
-168 -62 -306 -62 l-103 0 0 1075 0 1075 175 0 175 0 0 35 0 35 -590 0 -590 0
0 -35z"/>
<path d="M8340 5840 c-361 -37 -593 -224 -682 -550 -20 -74 -23 -108 -23 -265
0 -204 17 -291 81 -420 131 -267 417 -402 809 -381 454 24 688 222 751 636 34
231 5 481 -76 640 -130 256 -447 381 -860 340z m183 -64 c74 -31 109 -110 127
-282 16 -146 8 -944 -9 -1030 -22 -108 -70 -169 -143 -180 -90 -15 -163 29
-197 120 -36 96 -43 224 -38 692 3 371 7 449 21 504 24 92 57 143 108 169 50
24 86 26 131 7z"/>
<path d="M3670 5790 l0 -30 90 0 90 0 0 -519 c0 -309 4 -550 11 -595 37 -269
184 -405 454 -423 225 -14 393 56 472 198 16 27 30 49 33 49 4 0 12 -39 19
-87 6 -49 15 -98 18 -110 l5 -23 374 0 374 0 0 30 0 30 -90 0 -90 0 0 755 0
755 -380 0 -380 0 0 -30 0 -29 73 -3 72 -3 3 -505 c3 -516 -3 -631 -35 -714
-40 -101 -101 -156 -182 -164 -87 -8 -114 24 -131 159 -6 50 -10 325 -10 686
l0 603 -395 0 -395 0 0 -30z"/>
<path d="M9666 4770 c-105 -42 -166 -140 -166 -265 0 -121 59 -219 159 -263
52 -23 192 -22 253 1 125 48 190 217 143 373 -32 109 -114 164 -255 171 -68 3
-95 -1 -134 -17z"/>
</g>
</svg>
