<?xml version="1.0" encoding="UTF-8"?>
<!DOCTYPE svg PUBLIC "-//W3C//DTD SVG 1.1//EN" "http://www.w3.org/Graphics/SVG/1.1/DTD/svg11.dtd">
<svg xmlns="http://www.w3.org/2000/svg" version="1.1" width="1200px" height="1200px" style="shape-rendering:geometricPrecision; text-rendering:geometricPrecision; image-rendering:optimizeQuality; fill-rule:evenodd; clip-rule:evenodd" xmlns:xlink="http://www.w3.org/1999/xlink">
<g><path style="opacity:0.978" fill="#fefffe" d="M 652.5,527.5 C 680.167,527.5 707.833,527.5 735.5,527.5C 735.5,607.5 735.5,687.5 735.5,767.5C 740.833,767.5 746.167,767.5 751.5,767.5C 751.5,769.833 751.5,772.167 751.5,774.5C 726.833,774.5 702.167,774.5 677.5,774.5C 676.938,767.398 675.771,760.398 674,753.5C 667.558,767.313 656.725,775.146 641.5,777C 611.035,781.856 589.535,770.356 577,742.5C 567,711.833 567,681.167 577,650.5C 584.369,631.798 597.869,620.298 617.5,616C 627.121,614.509 636.788,614.176 646.5,615C 656.985,615.99 665.485,620.49 672,628.5C 672.5,597.168 672.667,565.835 672.5,534.5C 665.833,534.5 659.167,534.5 652.5,534.5C 652.5,532.167 652.5,529.833 652.5,527.5 Z M 649.5,624.5 C 660.463,624.619 667.63,629.952 671,640.5C 671.882,643.789 672.548,647.123 673,650.5C 673.167,665 673.333,679.5 673.5,694C 673.628,710.209 673.128,726.376 672,742.5C 668.595,758.436 659.095,764.603 643.5,761C 640.894,759.062 639.061,756.562 638,753.5C 636.363,748.286 635.363,742.953 635,737.5C 632.578,705.422 633.244,673.422 637,641.5C 638.301,633.502 642.468,627.836 649.5,624.5 Z"/></g>
<g><path style="opacity:0.979" fill="#fefffe" d="M 180.5,544.5 C 220.167,544.5 259.833,544.5 299.5,544.5C 299.5,547.167 299.5,549.833 299.5,552.5C 288.167,552.5 276.833,552.5 265.5,552.5C 265.5,623.833 265.5,695.167 265.5,766.5C 293.55,769.325 315.716,759.325 332,736.5C 340.534,724.269 347.868,711.269 354,697.5C 356.381,696.565 358.881,696.232 361.5,696.5C 359.958,722.541 357.958,748.541 355.5,774.5C 297.167,774.5 238.833,774.5 180.5,774.5C 180.5,771.833 180.5,769.167 180.5,766.5C 187.167,766.5 193.833,766.5 200.5,766.5C 200.5,695.167 200.5,623.833 200.5,552.5C 194.158,552.666 187.825,552.5 181.5,552C 180.565,549.619 180.232,547.119 180.5,544.5 Z"/></g>
<g><path style="opacity:0.977" fill="#fefffe" d="M 833.5,614.5 C 906.717,610.554 937.884,644.887 927,717.5C 920.186,753.686 898.352,773.519 861.5,777C 841.216,779.423 821.549,777.089 802.5,770C 782.689,760.856 770.189,745.689 765,724.5C 758.393,697.141 761.727,671.141 775,646.5C 789.646,627.091 809.146,616.424 833.5,614.5 Z M 840.5,621.5 C 848.326,619.749 854.492,622.082 859,628.5C 863.511,641.077 865.511,654.077 865,667.5C 866.022,695.884 865.356,724.217 863,752.5C 859.978,770.261 850.478,775.094 834.5,767C 830.831,762.492 828.664,757.325 828,751.5C 825.06,717.207 824.727,682.873 827,648.5C 827.604,641.084 829.604,634.084 833,627.5C 835.114,624.879 837.614,622.879 840.5,621.5 Z"/></g>
<g><path style="opacity:0.978" fill="#fefffe" d="M 365.5,617.5 C 392.5,617.5 419.5,617.5 446.5,617.5C 446.333,660.835 446.5,704.168 447,747.5C 448.931,762.705 456.431,766.205 469.5,758C 474.093,752.983 477.26,747.149 479,740.5C 480.463,701.868 480.963,663.201 480.5,624.5C 475.5,624.5 470.5,624.5 465.5,624.5C 465.5,622.167 465.5,619.833 465.5,617.5C 491.167,617.5 516.833,617.5 542.5,617.5C 542.5,667.5 542.5,717.5 542.5,767.5C 548.5,767.5 554.5,767.5 560.5,767.5C 560.5,769.833 560.5,772.167 560.5,774.5C 535.167,774.5 509.833,774.5 484.5,774.5C 484.115,767.294 482.949,760.294 481,753.5C 474.558,767.313 463.725,775.146 448.5,777C 437.043,778.089 425.71,777.422 414.5,775C 396.267,767.729 386.434,754.229 385,734.5C 384.5,697.835 384.333,661.168 384.5,624.5C 378.167,624.5 371.833,624.5 365.5,624.5C 365.5,622.167 365.5,619.833 365.5,617.5 Z"/></g>
<g><path style="opacity:0.965" fill="#fefffe" d="M 974.5,719.5 C 994.827,718.798 1005.83,728.465 1007.5,748.5C 1004.98,771.281 992.309,780.781 969.5,777C 956.144,772.824 949.144,763.657 948.5,749.5C 949.083,732.263 957.75,722.263 974.5,719.5 Z"/></g>
</svg>
